<?xml version="1.0" encoding="utf-8"?>
<!-- Generator: Adobe Illustrator 16.0.0, SVG Export Plug-In . SVG Version: 6.00 Build 0)  -->
<!DOCTYPE svg PUBLIC "-//W3C//DTD SVG 1.1//EN" "http://www.w3.org/Graphics/SVG/1.1/DTD/svg11.dtd">
<svg version="1.1" id="圖層_1" xmlns="http://www.w3.org/2000/svg" xmlns:xlink="http://www.w3.org/1999/xlink" x="0px" y="0px"
	 width="1425px" height="1213px" viewBox="0 0 1425 1213" enable-background="new 0 0 1425 1213" xml:space="preserve">
<g>
	<text transform="matrix(1 0 0 1 70.957 317.8726)" enable-background="new    "><tspan x="0" y="0" fill="#595757" font-family="'HanWangFangSongMedium'" font-size="20" letter-spacing="1">在大一必修</tspan><tspan x="105" y="0" fill="#595757" font-family="'HanWangFangSongMedium'" font-size="20" letter-spacing="6">的</tspan><tspan x="131" y="0" fill="#595757" font-family="'ARCENA'" font-size="20" letter-spacing="1">JAVA</tspan><tspan x="176.539" y="0" fill="#595757" font-family="'HanWangFangSongMedium'" font-size="20" letter-spacing="1">取得優異成績</tspan><tspan x="302.54" y="0" fill="#595757" font-family="'HanWangFangSongMedium'" font-size="20" letter-spacing="-9">，</tspan><tspan x="313.54" y="0" fill="#595757" font-family="'HanWangFangSongMedium'" font-size="20" letter-spacing="1">正</tspan><tspan x="56.77" y="30" fill="#595757" font-family="'HanWangFangSongMedium'" font-size="20" letter-spacing="1">式開啟程式的學習之旅</tspan><tspan x="266.77" y="30" fill="#595757" font-family="'HanWangFangSongMedium'" font-size="20" letter-spacing="-9">。</tspan></text>
</g>
<g>
	<text transform="matrix(1 0 0 1 84.0342 456.21)" enable-background="new    "><tspan x="0" y="0" fill="#595757" font-family="'HanWangFangSongMedium'" font-size="20" letter-spacing="1">於互動網頁課程</tspan><tspan x="147" y="0" fill="#595757" font-family="'HanWangFangSongMedium'" font-size="20" letter-spacing="6">中</tspan><tspan x="173" y="0" fill="#595757" font-family="'ARCENA'" font-size="20" letter-spacing="1">(JSP)</tspan><tspan x="223.359" y="0" fill="#595757" font-family="'HanWangFangSongMedium'" font-size="20" letter-spacing="1">成績優異</tspan><tspan x="307.359" y="0" fill="#595757" font-family="'HanWangFangSongMedium'" font-size="20" letter-spacing="-9">，</tspan><tspan x="-24.82" y="30" fill="#595757" font-family="'HanWangFangSongMedium'" font-size="20" letter-spacing="1">被教授推薦擔任大一學弟妹的課後教師</tspan><tspan x="332.18" y="30" fill="#595757" font-family="'HanWangFangSongMedium'" font-size="20" letter-spacing="-9">。</tspan></text>
</g>
<g>
	<text transform="matrix(1 0 0 1 44.6001 604.1909)" enable-background="new    "><tspan x="0" y="0" fill="#595757" font-family="'HanWangFangSongMedium'" font-size="20" letter-spacing="1">在畢業製作期間自主學習寫出人生中第一</tspan><tspan x="378" y="0" fill="#595757" font-family="'HanWangFangSongMedium'" font-size="20" letter-spacing="6">個</tspan><tspan x="404" y="0" fill="#595757" font-family="'ARCENA'" font-size="20" letter-spacing="1">Android APP</tspan><tspan x="502.5" y="0" fill="#595757" font-family="'HanWangFangSongMedium'" font-size="20" letter-spacing="-9">。</tspan></text>
</g>
<g>
	<text transform="matrix(1 0 0 1 152.23 746.125)" enable-background="new    "><tspan x="0" y="0" fill="#595757" font-family="'HanWangFangSongMedium'" font-size="20" letter-spacing="6">於</tspan><tspan x="26" y="0" fill="#595757" font-family="'ARCENA'" font-size="20" letter-spacing="1">Yourator</tspan><tspan x="99.238" y="0" fill="#595757" font-family="'HanWangFangSongMedium'" font-size="20" letter-spacing="1">平台尋求新創公司</tspan><tspan x="267.239" y="0" fill="#595757" font-family="'HanWangFangSongMedium'" font-size="20" letter-spacing="-9">，</tspan><tspan x="-107.88" y="30" fill="#595757" font-family="'HanWangFangSongMedium'" font-size="20" letter-spacing="1">遂獲得機會以行銷及程式實習生的身分進入開璽學習</tspan><tspan x="375.12" y="30" fill="#595757" font-family="'HanWangFangSongMedium'" font-size="20" letter-spacing="-9">。</tspan></text>
</g>
<g>
	<text transform="matrix(1 0 0 1 1092.8887 278.916)" enable-background="new    "><tspan x="0" y="0" fill="#595757" font-family="'HanWangFangSongMedium'" font-size="20" letter-spacing="1">國中開始認</tspan><tspan x="105" y="0" fill="#595757" font-family="'HanWangFangSongMedium'" font-size="20" letter-spacing="6">識</tspan><tspan x="131" y="0" fill="#595757" font-family="'HanWangFangSongMedium'" font-size="20" letter-spacing="1">C++</tspan><tspan x="-59.795" y="24" fill="#595757" font-family="'HanWangFangSongMedium'" font-size="20" letter-spacing="1">為未來學習程式語言打下基礎</tspan><tspan x="213.205" y="24" fill="#595757" font-family="'HanWangFangSongMedium'" font-size="20" letter-spacing="-9">。</tspan></text>
</g>
<g>
	<text transform="matrix(1 0 0 1 913.1787 395.1948)" enable-background="new    "><tspan x="0" y="0" fill="#595757" font-family="'HanWangFangSongMedium'" font-size="20" letter-spacing="1">籌備畢展主題時接</tspan><tspan x="168" y="0" fill="#595757" font-family="'HanWangFangSongMedium'" font-size="20" letter-spacing="6">觸</tspan><tspan x="194.001" y="0" fill="#595757" font-family="'ARCENA'" font-size="20" letter-spacing="1">Chatbot</tspan><tspan x="252.778" y="0" fill="#595757" font-family="'HanWangFangSongMedium'" font-size="20" letter-spacing="-9">。</tspan></text>
</g>
<g>
	<text transform="matrix(1 0 0 1 1138.0938 489.4307)" enable-background="new    "><tspan x="0" y="0" fill="#595757" font-family="'HanWangFangSongMedium'" font-size="20" letter-spacing="1">大三時</tspan><tspan x="63" y="0" fill="#595757" font-family="'HanWangFangSongMedium'" font-size="20" letter-spacing="-9">，</tspan><tspan x="-68" y="24" fill="#595757" font-family="'HanWangFangSongMedium'" font-size="20" letter-spacing="1">實習於中央社資訊部門</tspan><tspan x="-176.148" y="48" fill="#595757" font-family="'HanWangFangSongMedium'" font-size="20" letter-spacing="1">學</tspan><tspan x="-155.148" y="48" fill="#595757" font-family="'HanWangFangSongMedium'" font-size="20" letter-spacing="6">習</tspan><tspan x="-129.148" y="48" fill="#595757" font-family="'ARCENA'" font-size="20" letter-spacing="1">Boostrap</tspan><tspan x="-54.851" y="48" fill="#595757" font-family="'HanWangFangSongMedium'" font-size="20" letter-spacing="1">的應用以及網頁前端的切版技巧</tspan><tspan x="239.148" y="48" fill="#595757" font-family="'HanWangFangSongMedium'" font-size="20" letter-spacing="-9">。</tspan></text>
</g>
<g>
	<text transform="matrix(1 0 0 1 1027.626 612.5278)" enable-background="new    "><tspan x="0" y="0" fill="#595757" font-family="'HanWangFangSongMedium'" font-size="20" letter-spacing="1">開璽初期</tspan><tspan x="84" y="0" fill="#595757" font-family="'HanWangFangSongMedium'" font-size="20" letter-spacing="-9">，</tspan><tspan x="-105.5" y="24" fill="#595757" font-family="'HanWangFangSongMedium'" font-size="20" letter-spacing="1">協助問卷設計</tspan><tspan x="20.5" y="24" fill="#595757" font-family="'HanWangFangSongMedium'" font-size="20" letter-spacing="-9">、</tspan><tspan x="31.5" y="24" fill="#595757" font-family="'HanWangFangSongMedium'" font-size="20" letter-spacing="1">發放</tspan><tspan x="73.5" y="24" fill="#595757" font-family="'HanWangFangSongMedium'" font-size="20" letter-spacing="-9">、</tspan><tspan x="84.5" y="24" fill="#595757" font-family="'HanWangFangSongMedium'" font-size="20" letter-spacing="1">統計等工作</tspan><tspan x="189.5" y="24" fill="#595757" font-family="'HanWangFangSongMedium'" font-size="20" letter-spacing="-9">，</tspan><tspan x="-115.5" y="48" fill="#595757" font-family="'HanWangFangSongMedium'" font-size="20" letter-spacing="1">進行需求分析與使用者研究等任務</tspan><tspan x="199.5" y="48" fill="#595757" font-family="'HanWangFangSongMedium'" font-size="20" letter-spacing="-9">。</tspan></text>
</g>
<g>
	<text transform="matrix(1 0 0 1 243.8496 887.2471)" enable-background="new    "><tspan x="0" y="0" fill="#595757" font-family="'HanWangFangSongMedium'" font-size="20" letter-spacing="1">開璽中期</tspan><tspan x="84" y="0" fill="#595757" font-family="'HanWangFangSongMedium'" font-size="20" letter-spacing="-9">，</tspan><tspan x="-229.119" y="30" fill="#595757" font-family="'HanWangFangSongMedium'" font-size="20" letter-spacing="1">使用 </tspan><tspan x="-176.119" y="30" fill="#595757" font-family="'ARCENA'" font-size="20" letter-spacing="1">Google Apps Script</tspan><tspan x="-22.882" y="30" fill="#595757" font-family="'HanWangFangSongMedium'" font-size="20" letter-spacing="1">撰寫程式協助公司業務的自動化處理</tspan><tspan x="313.118" y="30" fill="#595757" font-family="'HanWangFangSongMedium'" font-size="20" letter-spacing="-9">。</tspan></text>
</g>
<g>
	<text transform="matrix(1 0 0 1 959.5938 763.9844)" enable-background="new    "><tspan x="0" y="0" fill="#595757" font-family="'HanWangFangSongMedium'" font-size="20" letter-spacing="1">大四下學期選修資管系的資料庫管理成績優異</tspan><tspan x="420" y="0" fill="#595757" font-family="'HanWangFangSongMedium'" font-size="20" letter-spacing="-9">，</tspan><tspan x="157.5" y="24" fill="#595757" font-family="'HanWangFangSongMedium'" font-size="20" letter-spacing="1">受教授肯定</tspan><tspan x="262.5" y="24" fill="#595757" font-family="'HanWangFangSongMedium'" font-size="20" letter-spacing="-9">。</tspan></text>
</g>
<g>
	<text transform="matrix(1 0 0 1 132.8496 1043.1875)" enable-background="new    "><tspan x="0" y="0" fill="#595757" font-family="'HanWangFangSongMedium'" font-size="20" letter-spacing="1">待役期間</tspan><tspan x="84" y="0" fill="#595757" font-family="'HanWangFangSongMedium'" font-size="20" letter-spacing="-9">，</tspan><tspan x="95" y="0" fill="#595757" font-family="'HanWangFangSongMedium'" font-size="20" letter-spacing="1">自行架設自家事務所網站</tspan><tspan x="326" y="0" fill="#595757" font-family="'HanWangFangSongMedium'" font-size="20" letter-spacing="-9">。</tspan></text>
</g>
<g>
	<text transform="matrix(1 0 0 1 1116.3184 917.6895)" enable-background="new    "><tspan x="0" y="0" fill="#595757" font-family="'HanWangFangSongMedium'" font-size="20" letter-spacing="1">開璽後期</tspan><tspan x="84" y="0" fill="#595757" font-family="'HanWangFangSongMedium'" font-size="20" letter-spacing="-9">，</tspan><tspan x="-31.33" y="30" fill="#595757" font-family="'HanWangFangSongMedium'" font-size="20" letter-spacing="1">協</tspan><tspan x="-10.33" y="30" fill="#595757" font-family="'HanWangFangSongMedium'" font-size="20" letter-spacing="6">助</tspan><tspan x="15.67" y="30" fill="#595757" font-family="'ARCENA'" font-size="20" letter-spacing="1">SEO</tspan><tspan x="52.33" y="30" fill="#595757" font-family="'HanWangFangSongMedium'" font-size="20" letter-spacing="1">的操作</tspan><tspan x="115.33" y="30" fill="#595757" font-family="'HanWangFangSongMedium'" font-size="20" letter-spacing="-9">，</tspan><tspan x="-168" y="60" fill="#595757" font-family="'HanWangFangSongMedium'" font-size="20" letter-spacing="1">分析關鍵字趨勢與調整頁面流程及使用者經驗</tspan><tspan x="252" y="60" fill="#595757" font-family="'HanWangFangSongMedium'" font-size="20" letter-spacing="-9">。</tspan></text>
</g>
<path fill="none" stroke="#5BBDA2" stroke-width="2" stroke-miterlimit="10" d="M712.5,0c0,18.195,4.282,251.091,3.814,269.335
	c-0.56,21.838,4.848,50.279-17.488,62.952c-12.338,7-47.036,10.135-45.327,30.214c1.049,12.32,16.21,18.114,26.058,21.59
	c17.587,6.207,46.699,0.501,59.998,15.663c8.613,9.819-0.538,23.421-9.751,28.632c-8.99,5.084-19.313,6.455-29.084,9.354
	c-11.223,3.329-22.809,7.163-33.353,12.279c-14.284,6.931-23.55,20.711-19.368,36.688c15.333,40.627,165.226,23.747,170,43.794
	c9.559,35.286-182.333,38.167-178.667,65.5c6.333,27.333,139.725,10.082,118.319,44.193c-3.86,6.151-13.248,9.729-19.434,12.552
	c-12.13,5.537-24.523,10.549-36.994,15.261c-19.406,7.332-38.807,14.62-57.783,23.018c-15.613,6.91-55.691,17.618-45.278,42.126
	c6.041,14.219,27.281,18.6,40.887,20.479c23.802,3.289,47.694,1.313,71.545,0.06c21.934-1.153,49.863-4.457,70.81,3.456
	c7.17,2.708,13.664,12.859,5.939,19.697c-6.991,6.189-17.159,8.949-26.086,10.812c-23.609,4.924-47.801,5.645-71.583,9.318
	c-30.666,4.737-75.704,13.727-90.869,45.402c-6.951,14.517,5.043,25.674,17.296,31.669c24.214,11.847,51.866,12.53,78.282,11.973
	c33.883-0.714,67.471,1.197,101.104,5.343c13.54,1.669,27.734,4.499,38.437,13.577c15.699,13.316,15.613,35.841-1.587,47.827
	c-25.225,17.576-62.631,16.702-91.965,15.605c-16.026-0.599-101.057,3.521-123.653,12.268c-5.174,2.003-9.879,5.53-12.794,10.344
	c-7.252,11.979,4.724,21.738,15.156,25.439c6.488,2.305,13.1,2.674,19.851,3.545c19.301,2.49,39.643,2.502,59.028,2.135
	c21.152-0.4,42.413-1.258,63.517,0.727c11.735,1.105,28.344,2.027,37.619,10.221c6.107,5.396,5.752,15.42-0.92,20.031
	c-6.44,4.453-14.783,6.25-22.277,7.881c-9.942,2.166-43.811,7.222-55.905,8.291c-11.892,1.967-20.903,6.568-20.995,14.75
	c-0.205,18.895,59.875,17.25,69.938,17.938c26.063,1.313,39.483,13.833,28.625,23.875c-8.313,7.688-35.45,16.411-56.563,18.188
	c-31.606,1.516-24.209,44.063-23.959,69"/>
<text transform="matrix(1 0 0 1 859.832 1104.1592)"><tspan x="0" y="0" fill="#595757" font-family="'HanWangFangSongMedium'" font-size="20" letter-spacing="1">退伍後報</tspan><tspan x="84" y="0" fill="#595757" font-family="'HanWangFangSongMedium'" font-size="20" letter-spacing="6">名</tspan><tspan x="110" y="0" fill="#595757" font-family="'ARCENA'" font-size="20" letter-spacing="1">AlphaCamp</tspan><tspan x="197.459" y="0" fill="#595757" font-family="'HanWangFangSongMedium'" font-size="20" letter-spacing="1">學習後</tspan><tspan x="260.459" y="0" fill="#595757" font-family="'HanWangFangSongMedium'" font-size="20" letter-spacing="6">端</tspan><tspan x="286.459" y="0" fill="#595757" font-family="'ARCENA'" font-size="20" letter-spacing="1">Node.js</tspan><tspan x="352.02" y="0" fill="#595757" font-family="'HanWangFangSongMedium'" font-size="20" letter-spacing="1">及培養與人協作的能力</tspan></text>
<path fill="none" stroke="#5BBDA2" stroke-width="2" stroke-miterlimit="10" d="M653.5,362.501c0,0-11.906,28.107-70.403,19.107
	c0,0-43.763-12.274-52.497-70.43c0,0-10.5-52.564-86.996-54.064c0,0-25.604-0.447-41.604,26.219l32.667-4.417
	c0,0-22.667-40.022-34.667-21.802S388,296,388,296"/>
<path fill="none" stroke="#5BBDA2" stroke-width="2" stroke-miterlimit="10" d="M742.542,412.362c0,0-7.542-86.53,64.458-133.446
	s207.989,14.869,207.989,14.869L994.5,261.326c0,0-30.673,41.143-7.153,42.067C1015.5,304.5,1029,300.5,1029,300.5"/>
<path fill="none" stroke="#5BBDA2" stroke-width="2" stroke-miterlimit="10" d="M818,530.5c0,0-40-59.5,0-89.5
	c0,0,24-26.58,72,15.21c0,0,40,26.21,90,0c0,0,63.568-39.21,63-42.21s-39.5,5.5-39.5,5.5s43.625,38.875,44.5,21.25l1-39.5"/>
<path fill="none" stroke="#5BBDA2" stroke-width="2" stroke-miterlimit="10" d="M648,486.706c0,0,8.667,37.294-81.333,51.294
	c0,0-57.334,8.667-95.333,0c0,0-47.333-13.664-55.333-22.832c0,0,31.334-4.832,28.667,0s-9.333,35.499-19.333,23.499
	s-16.667-30-16.667-30"/>
<path fill="none" stroke="#5BBDA2" stroke-width="2" stroke-miterlimit="10" d="M639.333,596c0,0-155.333,88.667-248,68.667
	c0,0-63.334-4.667-76.667-42l2.667,30c0,0,32.333-19.333,19-30S308,612.528,308,612.528"/>
<path fill="none" stroke="#5BBDA2" stroke-width="2" stroke-miterlimit="10" d="M759.957,633.896c0,0,27.042,29.336,60.043,30.104
	c0,0,65.658,3.604,51.333-59.809c0,0-20-92.857,48.667-52.857c0,0,71.999,40,71.333,40.667s0.005-26,0.005-26
	s-36.332,26.368-26.043,32.41c0.687,0.403,1.58,0.715,2.705,0.924c18,3.333,31.333-3.333,31.333-3.333"/>
<path fill="none" stroke="#5BBDA2" stroke-width="2" stroke-miterlimit="10" d="M601.48,738.486c0,0-21.98-19.486-73.033-17.896
	c0,0-33.447,3.883-58.447,17.896l11-24.567c0,0,29,26.081,14.5,26.581L464,744"/>
<path fill="none" stroke="#5BBDA2" stroke-width="2" stroke-miterlimit="10" d="M597.211,854.669c0,0-28.164,26.297-68.764,36.331
	c0,0-33.947,5.5-71.447-36c0,0-17.92-24.451-48.335-40.187c-0.878-0.454-1.767-0.893-2.665-1.313c-32-15-65.5-17.5-91.5-11.5
	c0,0-31.5,9.953-32,39.227l-9-22.727c0,0,45.699,0,27.35,13.5s-24.35,19-24.35,19"/>
<path fill="none" stroke="#5BBDA2" stroke-width="2" stroke-miterlimit="10" d="M601.722,998.047c0,0-32.222-39.047-70.722-31.547
	s-33.5,62.5-112,17.853c0,0-90-64.353-104.5-8.353c0,0-6.5,35.5-11.5,25.5s-6.5-15.5-6.5-15.5s46,5.551,26,17.275
	s-26,10.225-26,10.225"/>
<path fill="none" stroke="#5BBDA2" stroke-width="2" stroke-miterlimit="10" d="M790.707,768.062c0,0,67.96,141.938,147.872,66.522
	c0,0,43.825-50.584,99.421-46.584c65.332,4.7,42,77.333,104,48.667l24.667-20.017l-30.326,2.935c0,0,34.287,43.154,35.261,16.155
	s0.064-34.74,0.064-34.74"/>
<path fill="none" stroke="#5BBDA2" stroke-width="2" stroke-miterlimit="10" d="M844.79,922.477c0,0,74.553-31.235,133.21-31.235
	c66.568,0,110.667,31.235,110.667,31.235L1082,901.334c0,0-42,27.333-18,27.333s34,0,34,0"/>
<path fill="none" stroke="#5BBDA2" stroke-width="2" stroke-miterlimit="10" d="M803.434,1043.188c0,0,17.613,38.438,53.233,27.479
	c56.334-17.333,46.334-54.999,108-65.959c0,0,59.873-11.978,123.841,7.168c0.499,0.15,0.997,0.303,1.493,0.458
	c64,20,92.999,60.299,92.999,60.299l1.333-22.298c0,0-26.262,25.37-15.595,25.704l21.595,2.296"/>
</svg>
